<?xml version="1.0" encoding="UTF-8"?>
<svg version="1.1" xmlns="http://www.w3.org/2000/svg" width="32" height="32">
<path d="M0 0 C10.56 0 21.12 0 32 0 C32 10.56 32 21.12 32 32 C21.44 32 10.88 32 0 32 C0 21.44 0 10.88 0 0 Z " fill="#F60000" transform="translate(0,0)"/>
<path d="M0 0 C8.58 0 17.16 0 26 0 C26 5.28 26 10.56 26 16 C20.71840066 17.50902838 18.10721131 18.23214597 13 18 C12.01 18 11.02 18 10 18 C6.66666667 18 3.33333333 18 0 18 C0 12.06 0 6.12 0 0 Z " fill="#271213" transform="translate(3,9)"/>
<path d="M0 0 C0.9075 0.00257812 1.815 0.00515625 2.75 0.0078125 C4.11125 0.00394531 4.11125 0.00394531 5.5 0 C7.75 0.1328125 7.75 0.1328125 8.75 1.1328125 C8.82226502 2.98568752 8.8338122 4.84115128 8.8125 6.6953125 C8.80347656 7.70722656 8.79445313 8.71914063 8.78515625 9.76171875 C8.77355469 10.54417969 8.76195312 11.32664062 8.75 12.1328125 C7.1 12.1328125 5.45 12.1328125 3.75 12.1328125 C3.75 11.1428125 3.75 10.1528125 3.75 9.1328125 C3.09 9.1328125 2.43 9.1328125 1.75 9.1328125 C1.75 10.1228125 1.75 11.1128125 1.75 12.1328125 C0.1 12.1328125 -1.55 12.1328125 -3.25 12.1328125 C-3.27687279 10.32039198 -3.29633715 8.50786017 -3.3125 6.6953125 C-3.32410156 5.68597656 -3.33570313 4.67664063 -3.34765625 3.63671875 C-3.22230391 0.42268464 -3.19398269 0.1885337 0 0 Z " fill="#F26E73" transform="translate(7.25,9.8671875)"/>
<path d="M0 0 C3.63 0 7.26 0 11 0 C11 3.96 11 7.92 11 12 C7.37 12 3.74 12 0 12 C0 8.04 0 4.08 0 0 Z " fill="#F29956" transform="translate(17,10)"/>
<path d="M0 0 C0.9075 0.00257812 1.815 0.00515625 2.75 0.0078125 C4.11125 0.00394531 4.11125 0.00394531 5.5 0 C7.75 0.1328125 7.75 0.1328125 8.75 1.1328125 C8.79063832 2.79898365 8.792721 4.46669345 8.75 6.1328125 C7.1 6.1328125 5.45 6.1328125 3.75 6.1328125 C3.75 5.1428125 3.75 4.1528125 3.75 3.1328125 C3.09 3.1328125 2.43 3.1328125 1.75 3.1328125 C1.75 4.1228125 1.75 5.1128125 1.75 6.1328125 C0.1 6.1328125 -1.55 6.1328125 -3.25 6.1328125 C-3.292721 4.46669345 -3.29063832 2.79898365 -3.25 1.1328125 C-2.25 0.1328125 -2.25 0.1328125 0 0 Z " fill="#FCEF82" transform="translate(7.25,9.8671875)"/>
<path d="M0 0 C3.63 0 7.26 0 11 0 C11 1.65 11 3.3 11 5 C7.37 4.67 3.74 4.34 0 4 C0 2.68 0 1.36 0 0 Z " fill="#FCF88D" transform="translate(17,10)"/>
<path d="M0 0 C3.63 0 7.26 0 11 0 C11 0.99 11 1.98 11 3 C7.37 3 3.74 3 0 3 C0 2.01 0 1.02 0 0 Z " fill="#FF489C" transform="translate(17,19)"/>
</svg>
