<?xml version="1.0" encoding="UTF-8"?>
<svg version="1.1" xmlns="http://www.w3.org/2000/svg" width="278" height="100">
<path d="M0 0 C4.00125 0.165 8.0025 0.33 12.125 0.5 C12.125 14.36 12.125 28.22 12.125 42.5 C18.4775 42.355625 24.83 42.21125 31.375 42.0625 C33.3746582 42.01939697 35.37431641 41.97629395 37.43457031 41.93188477 C39.02409716 41.89374939 40.61361602 41.8552792 42.203125 41.81640625 C43.43554932 41.7916925 43.43554932 41.7916925 44.69287109 41.76647949 C45.48419434 41.74629761 46.27551758 41.72611572 47.09082031 41.70532227 C47.77476868 41.68977798 48.45871704 41.6742337 49.16339111 41.65821838 C51.17903773 41.55898125 51.17903773 41.55898125 53.26776123 40.89732361 C53.88065002 40.76620682 54.49353882 40.63509003 55.125 40.5 C56.875 41.9375 56.875 41.9375 58.125 43.5 C56.85863843 46.97292937 55.40853334 49.74072491 53.18359375 52.6875 C52.60367676 53.46311279 52.02375977 54.23872559 51.42626953 55.0378418 C50.50370361 56.25661011 50.50370361 56.25661011 49.5625 57.5 C48.29669541 59.19290356 47.03237728 60.88691956 45.76953125 62.58203125 C44.84068115 63.82847412 44.84068115 63.82847412 43.89306641 65.10009766 C40.17537349 70.14634474 36.65755789 75.3229755 33.125 80.5 C38.405 80.5 43.685 80.5 49.125 80.5 C49.04378906 79.25605469 48.96257812 78.01210937 48.87890625 76.73046875 C48.4574183 67.53445207 48.20941677 60.30237952 54.05078125 52.671875 C59.31677357 47.15795461 65.14993385 42.32791026 73.01171875 42.12890625 C74.9451546 42.0957313 76.87881376 42.07400243 78.8125 42.0625 C79.76833984 42.02962891 80.72417969 41.99675781 81.70898438 41.96289062 C90.62252935 41.89605423 96.46961988 44.87924102 102.9375 50.875 C106.01382479 54.13018088 108.09424882 57.51972768 110.125 61.5 C110.43953125 60.63117187 110.7540625 59.76234375 111.078125 58.8671875 C111.50609375 57.71476562 111.9340625 56.56234375 112.375 55.375 C113.00148437 53.66957031 113.00148437 53.66957031 113.640625 51.9296875 C115.21851401 48.28393342 116.44960605 45.45841083 119.125 42.5 C122.00603641 41.65205946 124.70443217 41.70425366 127.6875 41.8125 C128.45513672 41.79767578 129.22277344 41.78285156 130.01367188 41.76757812 C132.25390625 41.80078125 132.25390625 41.80078125 136.125 42.5 C137.9921875 44.69921875 137.9921875 44.69921875 139.125 47.5 C139.77662109 48.84578125 139.77662109 48.84578125 140.44140625 50.21875 C140.85261719 51.1365625 141.26382813 52.054375 141.6875 53 C142.10128906 53.9178125 142.51507813 54.835625 142.94140625 55.78125 C144.05369817 58.33621759 145.10556126 60.90677333 146.125 63.5 C146.19847656 61.72882812 146.19847656 61.72882812 146.2734375 59.921875 C146.34848879 58.36456063 146.42403561 56.80727009 146.5 55.25 C146.5309375 54.47269531 146.561875 53.69539063 146.59375 52.89453125 C146.63242188 52.14042969 146.67109375 51.38632812 146.7109375 50.609375 C146.7423584 49.91811523 146.7737793 49.22685547 146.80615234 48.51464844 C147.17090967 46.20991835 147.99224094 44.52704253 149.125 42.5 C153.80223114 42.37539142 158.47847364 42.28519377 163.15698242 42.2253418 C164.74471897 42.20036472 166.33234252 42.16637019 167.91967773 42.12280273 C185.56381589 41.65103433 185.56381589 41.65103433 192.125 47.5 C195.75428065 50.97890364 197.3552577 54.10519991 197.7890625 59.12890625 C197.80218724 60.77343667 197.7887461 62.41837369 197.75 64.0625 C197.77900391 65.2990332 197.77900391 65.2990332 197.80859375 66.56054688 C197.7596931 72.67801855 196.29641666 75.11042685 192.125 79.5 C192.02960404 83.98361009 193.68986283 86.79642884 196.28515625 90.3984375 C197.125 92.5 197.125 92.5 197.125 100.5 C190.855 100.5 184.585 100.5 178.125 100.5 C172.125 87.75 172.125 87.75 172.125 85.5 C170.475 85.5 168.825 85.5 167.125 85.5 C167.125 90.45 167.125 95.4 167.125 100.5 C157.885 100.5 148.645 100.5 139.125 100.5 C138.135 98.19 137.145 95.88 136.125 93.5 C130.185 93.5 124.245 93.5 118.125 93.5 C117.135 95.81 116.145 98.12 115.125 100.5 C74.205 100.5 33.285 100.5 -8.875 100.5 C-6.875 95.5 -6.875 95.5 -5.875 93.5 C-6.8340625 93.314375 -6.8340625 93.314375 -7.8125 93.125 C-8.493125 92.91875 -9.17375 92.7125 -9.875 92.5 C-11.23200647 89.78598706 -10.9873861 87.65153684 -10.97265625 84.6171875 C-10.96782227 82.86728516 -10.96782227 82.86728516 -10.96289062 81.08203125 C-10.95032227 79.24705078 -10.95032227 79.24705078 -10.9375 77.375 C-10.93298828 76.14394531 -10.92847656 74.91289063 -10.92382812 73.64453125 C-10.9120133 70.59630608 -10.89554028 67.54817686 -10.875 64.5 C-11.76703125 64.53480469 -12.6590625 64.56960937 -13.578125 64.60546875 C-14.74859375 64.63253906 -15.9190625 64.65960938 -17.125 64.6875 C-18.86523438 64.73970703 -18.86523438 64.73970703 -20.640625 64.79296875 C-24.09768407 64.47982934 -25.39065563 63.84290892 -27.875 61.5 C-28.59042969 62.51835938 -29.30585937 63.53671875 -30.04296875 64.5859375 C-35.63035054 72.52689846 -41.25112643 80.44204756 -46.9375 88.3125 C-47.48494873 89.07030762 -48.03239746 89.82811523 -48.59643555 90.60888672 C-51.46164541 94.5678418 -51.46164541 94.5678418 -52.875 96.5 C-53.3071582 97.22888428 -53.73931641 97.95776855 -54.18457031 98.70874023 C-55.875 100.5 -55.875 100.5 -58.51049805 100.95410156 C-59.54215088 100.9331543 -60.57380371 100.91220703 -61.63671875 100.890625 C-62.75498047 100.87773438 -63.87324219 100.86484375 -65.02539062 100.8515625 C-66.19263672 100.81804687 -67.35988281 100.78453125 -68.5625 100.75 C-69.74134766 100.73195313 -70.92019531 100.71390625 -72.13476562 100.6953125 C-75.04898926 100.64811859 -77.96159031 100.58229077 -80.875 100.5 C-81.02268874 95.56702666 -80.64738341 93.47578898 -77.5625 89.5625 C-76.46615234 88.13550781 -76.46615234 88.13550781 -75.34765625 86.6796875 C-74.94820801 86.16889648 -74.54875977 85.65810547 -74.13720703 85.13183594 C-71.86524386 82.19454351 -69.68957391 79.18639845 -67.5 76.1875 C-67.03368164 75.55215332 -66.56736328 74.91680664 -66.08691406 74.26220703 C-61.70208103 68.28549553 -57.39176013 62.25700047 -53.09570312 56.21630859 C-46.6702258 47.18208748 -40.20512515 38.17731211 -33.70751953 29.19482422 C-29.50804416 23.38619246 -25.3404508 17.55567852 -21.19140625 11.7109375 C-20.42699219 10.65132812 -19.66257813 9.59171875 -18.875 8.5 C-18.49053711 7.78811523 -18.10607422 7.07623047 -17.70996094 6.34277344 C-13.2986281 -1.06839673 -8.03057934 -0.46770028 0 0 Z M-11.875 37.5 C-12.535 39.15 -13.195 40.8 -13.875 42.5 C-12.885 42.5 -11.895 42.5 -10.875 42.5 C-10.875 40.85 -10.875 39.2 -10.875 37.5 C-11.205 37.5 -11.535 37.5 -11.875 37.5 Z M-19.875 48.5 C-18.875 50.5 -18.875 50.5 -18.875 50.5 Z M-23.875 54.5 C-22.875 56.5 -22.875 56.5 -22.875 56.5 Z M70.125 63.5 C68.19897845 66.54519623 67.85319992 68.92478708 67.875 72.5 C67.86984375 73.345625 67.8646875 74.19125 67.859375 75.0625 C68.25599866 78.70210531 69.28237806 80.68324803 71.90625 83.2265625 C74.65064078 84.8016882 76.47496069 84.90096186 79.625 84.875 C80.5634375 84.88273437 81.501875 84.89046875 82.46875 84.8984375 C85.54815045 84.43652743 86.9085299 83.66093213 89.125 81.5 C89.434375 80.46875 89.74375 79.4375 90.0625 78.375 C92.125 75.5 92.125 75.5 95.203125 74.890625 C98.51881415 74.64661324 101.80082467 74.5094841 105.125 74.5 C105.455 73.18 105.785 71.86 106.125 70.5 C101.175 70.17 96.225 69.84 91.125 69.5 C90.465 67.85 89.805 66.2 89.125 64.5 C85.97250528 61.66275475 83.62859362 59.67086291 79.375 59.1875 C75.26732771 59.58246849 73.29573386 60.9057632 70.125 63.5 Z M167.125 60.5 C167.125 63.14 167.125 65.78 167.125 68.5 C168.74963842 68.55395478 170.37478541 68.59277195 172 68.625 C172.90492188 68.64820312 173.80984375 68.67140625 174.7421875 68.6953125 C177.31306994 68.74324836 177.31306994 68.74324836 179.125 66.5 C178.83516731 63.19316534 178.83516731 63.19316534 177.125 60.5 C175.43891034 60.42794489 173.74999341 60.41613932 172.0625 60.4375 C171.14339844 60.44652344 170.22429687 60.45554688 169.27734375 60.46484375 C168.56707031 60.47644531 167.85679687 60.48804688 167.125 60.5 Z M12.125 64.5 C12.125 66.15 12.125 67.8 12.125 69.5 C13.445 67.85 14.765 66.2 16.125 64.5 C14.805 64.5 13.485 64.5 12.125 64.5 Z M10.125 70.5 C11.125 72.5 11.125 72.5 11.125 72.5 Z M126.125 70.5 C125.795 71.82 125.465 73.14 125.125 74.5 C126.445 74.5 127.765 74.5 129.125 74.5 C128.795 73.18 128.465 71.86 128.125 70.5 C127.465 70.5 126.805 70.5 126.125 70.5 Z M6.125 76.5 C6.125 79.5 6.125 79.5 6.125 79.5 Z M2.125 81.5 C3.125 83.5 3.125 83.5 3.125 83.5 Z " fill="#DA2920" transform="translate(80.875,-0.5)"/>
<path d="M0 0 C4.00125 0.165 8.0025 0.33 12.125 0.5 C12.125 14.36 12.125 28.22 12.125 42.5 C18.4775 42.355625 24.83 42.21125 31.375 42.0625 C33.3746582 42.01939697 35.37431641 41.97629395 37.43457031 41.93188477 C39.02409716 41.89374939 40.61361602 41.8552792 42.203125 41.81640625 C43.43554932 41.7916925 43.43554932 41.7916925 44.69287109 41.76647949 C45.48419434 41.74629761 46.27551758 41.72611572 47.09082031 41.70532227 C47.77476868 41.68977798 48.45871704 41.6742337 49.16339111 41.65821838 C51.17903773 41.55898125 51.17903773 41.55898125 53.26776123 40.89732361 C53.88065002 40.76620682 54.49353882 40.63509003 55.125 40.5 C56.875 41.9375 56.875 41.9375 58.125 43.5 C56.85863843 46.97292937 55.40853334 49.74072491 53.18359375 52.6875 C52.60367676 53.46311279 52.02375977 54.23872559 51.42626953 55.0378418 C50.50370361 56.25661011 50.50370361 56.25661011 49.5625 57.5 C48.29669541 59.19290356 47.03237728 60.88691956 45.76953125 62.58203125 C44.84068115 63.82847412 44.84068115 63.82847412 43.89306641 65.10009766 C40.17537349 70.14634474 36.65755789 75.3229755 33.125 80.5 C38.405 80.5 43.685 80.5 49.125 80.5 C49.04378906 79.25605469 48.96257812 78.01210937 48.87890625 76.73046875 C48.4574183 67.53445207 48.20941677 60.30237952 54.05078125 52.671875 C59.31677357 47.15795461 65.14993385 42.32791026 73.01171875 42.12890625 C74.9451546 42.0957313 76.87881376 42.07400243 78.8125 42.0625 C79.76833984 42.02962891 80.72417969 41.99675781 81.70898438 41.96289062 C90.62252935 41.89605423 96.46961988 44.87924102 102.9375 50.875 C106.01382479 54.13018088 108.09424882 57.51972768 110.125 61.5 C110.43953125 60.63117187 110.7540625 59.76234375 111.078125 58.8671875 C111.50609375 57.71476562 111.9340625 56.56234375 112.375 55.375 C113.00148437 53.66957031 113.00148437 53.66957031 113.640625 51.9296875 C115.21851401 48.28393342 116.44960605 45.45841083 119.125 42.5 C122.00603641 41.65205946 124.70443217 41.70425366 127.6875 41.8125 C128.45513672 41.79767578 129.22277344 41.78285156 130.01367188 41.76757812 C132.25390625 41.80078125 132.25390625 41.80078125 136.125 42.5 C137.9921875 44.69921875 137.9921875 44.69921875 139.125 47.5 C139.77662109 48.84578125 139.77662109 48.84578125 140.44140625 50.21875 C140.85261719 51.1365625 141.26382813 52.054375 141.6875 53 C142.10128906 53.9178125 142.51507813 54.835625 142.94140625 55.78125 C144.05369817 58.33621759 145.10556126 60.90677333 146.125 63.5 C146.19847656 61.72882812 146.19847656 61.72882812 146.2734375 59.921875 C146.34848879 58.36456063 146.42403561 56.80727009 146.5 55.25 C146.5309375 54.47269531 146.561875 53.69539063 146.59375 52.89453125 C146.63242188 52.14042969 146.67109375 51.38632812 146.7109375 50.609375 C146.7423584 49.91811523 146.7737793 49.22685547 146.80615234 48.51464844 C147.17090967 46.20991835 147.99224094 44.52704253 149.125 42.5 C153.80223114 42.37539142 158.47847364 42.28519377 163.15698242 42.2253418 C164.74471897 42.20036472 166.33234252 42.16637019 167.91967773 42.12280273 C185.56381589 41.65103433 185.56381589 41.65103433 192.125 47.5 C195.75428065 50.97890364 197.3552577 54.10519991 197.7890625 59.12890625 C197.80218724 60.77343667 197.7887461 62.41837369 197.75 64.0625 C197.77900391 65.2990332 197.77900391 65.2990332 197.80859375 66.56054688 C197.7596931 72.67801855 196.29641666 75.11042685 192.125 79.5 C192.02960404 83.98361009 193.68986283 86.79642884 196.28515625 90.3984375 C197.125 92.5 197.125 92.5 197.125 100.5 C190.855 100.5 184.585 100.5 178.125 100.5 C172.125 87.75 172.125 87.75 172.125 85.5 C170.475 85.5 168.825 85.5 167.125 85.5 C167.125 90.45 167.125 95.4 167.125 100.5 C157.885 100.5 148.645 100.5 139.125 100.5 C138.135 98.19 137.145 95.88 136.125 93.5 C130.185 93.5 124.245 93.5 118.125 93.5 C117.135 95.81 116.145 98.12 115.125 100.5 C105.555 100.5 95.985 100.5 86.125 100.5 C89.0667345 98.53884366 92.01597329 97.03770992 95.1875 95.5 C97.35663505 94.42596291 97.35663505 94.42596291 100.125 92.5 C99.465 94.81 98.805 97.12 98.125 99.5 C102.745 99.5 107.365 99.5 112.125 99.5 C112.599375 98.035625 113.07375 96.57125 113.5625 95.0625 C115 90.625 115 90.625 116.125 89.5 C117.75972882 89.41299658 119.39814055 89.39298937 121.03515625 89.40234375 C122.02451172 89.40556641 123.01386719 89.40878906 124.03320312 89.41210938 C125.07412109 89.42048828 126.11503906 89.42886719 127.1875 89.4375 C128.75467773 89.44426758 128.75467773 89.44426758 130.35351562 89.45117188 C132.94403454 89.46300073 135.53452422 89.48093681 138.125 89.5 C140.105 93.955 140.105 93.955 142.125 98.5 C153.015 98.995 153.015 98.995 164.125 99.5 C164.125 93.89 164.125 88.28 164.125 82.5 C167.425 82.5 170.725 82.5 174.125 82.5 C176.435 87.78 178.745 93.06 181.125 98.5 C186.075 98.83 191.025 99.16 196.125 99.5 C192.84587086 92.20442945 192.84587086 92.20442945 189.375 85 C188.125 82.5 188.125 82.5 187.125 79.5 C187.90875 78.943125 188.6925 78.38625 189.5 77.8125 C192.97471105 74.75144503 193.9450525 72.21534372 194.42578125 67.6328125 C194.48724859 59.10534332 194.48724859 59.10534332 191.125 51.5 C185.15076782 46.64197256 179.99357561 45.41701767 172.390625 45.18359375 C171.22305664 45.14548584 170.05548828 45.10737793 168.85253906 45.06811523 C167.37495117 45.02501221 165.89736328 44.98190918 164.375 44.9375 C159.6725 44.793125 154.97 44.64875 150.125 44.5 C150.125 56.38 150.125 68.26 150.125 80.5 C147.63588751 77.18118334 146.42339341 74.84778407 145.07421875 71.04296875 C142.74635206 64.80658515 140.01822393 58.67438587 137.26953125 52.61376953 C135.97709927 49.72475931 135.125 47.70349937 135.125 44.5 C130.175 44.83 125.225 45.16 120.125 45.5 C115.835 55.73 111.545 65.96 107.125 76.5 C102.505 76.5 97.885 76.5 93.125 76.5 C92.465 78.48 91.805 80.46 91.125 82.5 C86.58142792 86.81056839 82.60230202 87.96790214 76.48046875 87.91796875 C72.36875027 87.18836033 69.73126633 84.6477344 67.125 81.5 C64.21987789 76.83035742 64.38076059 71.82243942 65.125 66.5 C67.07796924 62.11165477 69.61766321 59.25737319 74.125 57.5 C78.48138525 56.87483897 83.05566119 56.51226826 87.10546875 58.4453125 C90.56048653 61.15814127 91.45698376 63.32995939 93.125 67.5 C98.075 67.83 103.025 68.16 108.125 68.5 C105.22471408 60.67801675 102.85988287 54.6008923 96.125 49.5 C95.57585937 49.06816406 95.02671875 48.63632812 94.4609375 48.19140625 C87.4855467 43.75112444 77.41599136 44.52555562 69.55859375 45.97265625 C62.39525214 48.31370918 56.48187129 53.85368756 52.9921875 60.4453125 C50.9778896 67.54072223 51.87083544 75.23089368 52.125 82.5 C44.205 82.5 36.285 82.5 28.125 82.5 C32.59558908 75.18449059 37.39463608 68.31890521 42.59667969 61.51171875 C46.60056613 56.26211947 50.32691247 50.92583933 54.125 45.5 C20.96 45.005 20.96 45.005 -12.875 44.5 C-13.535 45.82 -14.195 47.14 -14.875 48.5 C-16.39461415 50.77119226 -17.92877145 53.01563789 -19.5 55.25 C-21.665625 58.34375 -21.665625 58.34375 -23.875 61.5 C-18.595 61.5 -13.315 61.5 -7.875 61.5 C-7.545 70.74 -7.215 79.98 -6.875 89.5 C-4.585625 86.40625 -2.29625 83.3125 0.0625 80.125 C0.78429443 79.15127441 1.50608887 78.17754883 2.24975586 77.17431641 C3.09872437 76.02455322 3.09872437 76.02455322 3.96484375 74.8515625 C4.83677368 73.67327881 4.83677368 73.67327881 5.72631836 72.47119141 C7.16051005 70.55636742 7.16051005 70.55636742 8.125 68.5 C8.785 68.5 9.445 68.5 10.125 68.5 C10.125 66.52 10.125 64.54 10.125 62.5 C13.425 62.5 16.725 62.5 20.125 62.5 C16.35140478 69.07960192 12.25803685 75.10712016 7.63671875 81.1171875 C5.7360021 83.62860372 3.9565955 86.20142454 2.20703125 88.8203125 C1.71549561 89.55427246 1.22395996 90.28823242 0.7175293 91.04443359 C-0.24924255 92.49740596 -1.20765605 93.95597991 -2.15698242 95.42041016 C-3.32145207 97.16594356 -4.59055996 98.84075614 -5.875 100.5 C-6.865 100.5 -7.855 100.5 -8.875 100.5 C-7 95.75 -7 95.75 -5.875 93.5 C-6.8340625 93.314375 -6.8340625 93.314375 -7.8125 93.125 C-8.493125 92.91875 -9.17375 92.7125 -9.875 92.5 C-11.23200647 89.78598706 -10.9873861 87.65153684 -10.97265625 84.6171875 C-10.96782227 82.86728516 -10.96782227 82.86728516 -10.96289062 81.08203125 C-10.95032227 79.24705078 -10.95032227 79.24705078 -10.9375 77.375 C-10.93298828 76.14394531 -10.92847656 74.91289063 -10.92382812 73.64453125 C-10.9120133 70.59630608 -10.89554028 67.54817686 -10.875 64.5 C-11.76703125 64.53480469 -12.6590625 64.56960937 -13.578125 64.60546875 C-14.74859375 64.63253906 -15.9190625 64.65960938 -17.125 64.6875 C-18.86523438 64.73970703 -18.86523438 64.73970703 -20.640625 64.79296875 C-24.09768407 64.47982934 -25.39065563 63.84290892 -27.875 61.5 C-28.59042969 62.51835938 -29.30585937 63.53671875 -30.04296875 64.5859375 C-35.63035054 72.52689846 -41.25112643 80.44204756 -46.9375 88.3125 C-47.48494873 89.07030762 -48.03239746 89.82811523 -48.59643555 90.60888672 C-51.46164541 94.5678418 -51.46164541 94.5678418 -52.875 96.5 C-53.3071582 97.22888428 -53.73931641 97.95776855 -54.18457031 98.70874023 C-55.875 100.5 -55.875 100.5 -58.51049805 100.95410156 C-59.54215088 100.9331543 -60.57380371 100.91220703 -61.63671875 100.890625 C-62.75498047 100.87773438 -63.87324219 100.86484375 -65.02539062 100.8515625 C-66.19263672 100.81804687 -67.35988281 100.78453125 -68.5625 100.75 C-69.74134766 100.73195313 -70.92019531 100.71390625 -72.13476562 100.6953125 C-75.04898926 100.64811859 -77.96159031 100.58229077 -80.875 100.5 C-81.02268874 95.56702666 -80.64738341 93.47578898 -77.5625 89.5625 C-76.46615234 88.13550781 -76.46615234 88.13550781 -75.34765625 86.6796875 C-74.94820801 86.16889648 -74.54875977 85.65810547 -74.13720703 85.13183594 C-71.86524386 82.19454351 -69.68957391 79.18639845 -67.5 76.1875 C-67.03368164 75.55215332 -66.56736328 74.91680664 -66.08691406 74.26220703 C-61.70208103 68.28549553 -57.39176013 62.25700047 -53.09570312 56.21630859 C-46.6702258 47.18208748 -40.20512515 38.17731211 -33.70751953 29.19482422 C-29.50804416 23.38619246 -25.3404508 17.55567852 -21.19140625 11.7109375 C-20.42699219 10.65132812 -19.66257813 9.59171875 -18.875 8.5 C-18.49053711 7.78811523 -18.10607422 7.07623047 -17.70996094 6.34277344 C-13.2986281 -1.06839673 -8.03057934 -0.46770028 0 0 Z M-11.875 37.5 C-12.535 39.15 -13.195 40.8 -13.875 42.5 C-12.885 42.5 -11.895 42.5 -10.875 42.5 C-10.875 40.85 -10.875 39.2 -10.875 37.5 C-11.205 37.5 -11.535 37.5 -11.875 37.5 Z M-19.875 48.5 C-18.875 50.5 -18.875 50.5 -18.875 50.5 Z M-23.875 54.5 C-22.875 56.5 -22.875 56.5 -22.875 56.5 Z M70.125 63.5 C68.19897845 66.54519623 67.85319992 68.92478708 67.875 72.5 C67.86984375 73.345625 67.8646875 74.19125 67.859375 75.0625 C68.25599866 78.70210531 69.28237806 80.68324803 71.90625 83.2265625 C74.65064078 84.8016882 76.47496069 84.90096186 79.625 84.875 C80.5634375 84.88273437 81.501875 84.89046875 82.46875 84.8984375 C85.54815045 84.43652743 86.9085299 83.66093213 89.125 81.5 C89.434375 80.46875 89.74375 79.4375 90.0625 78.375 C92.125 75.5 92.125 75.5 95.203125 74.890625 C98.51881415 74.64661324 101.80082467 74.5094841 105.125 74.5 C105.455 73.18 105.785 71.86 106.125 70.5 C101.175 70.17 96.225 69.84 91.125 69.5 C90.465 67.85 89.805 66.2 89.125 64.5 C85.97250528 61.66275475 83.62859362 59.67086291 79.375 59.1875 C75.26732771 59.58246849 73.29573386 60.9057632 70.125 63.5 Z M12.125 64.5 C12.125 66.15 12.125 67.8 12.125 69.5 C13.445 67.85 14.765 66.2 16.125 64.5 C14.805 64.5 13.485 64.5 12.125 64.5 Z M10.125 70.5 C11.125 72.5 11.125 72.5 11.125 72.5 Z M6.125 76.5 C6.125 79.5 6.125 79.5 6.125 79.5 Z M2.125 81.5 C3.125 83.5 3.125 83.5 3.125 83.5 Z " fill="#DC251D" transform="translate(80.875,-0.5)"/>
<path d="M0 0 C1.51163271 0.02428915 3.02336875 0.04277416 4.53514099 0.05574036 C8.48846895 0.10506265 12.43544955 0.23241869 16.3862915 0.37689209 C20.42787786 0.51060345 24.47050488 0.56940171 28.51367188 0.63476562 C36.42737233 0.77362128 44.33594078 0.99504705 52.24609375 1.26953125 C51.1285194 3.03678513 50.00950989 4.8031315 48.88989258 6.5690918 C47.95540031 8.04468819 47.95540031 8.04468819 47.00202942 9.5500946 C45.09895601 12.49740507 43.07749312 15.30536935 40.93359375 18.08203125 C35.88599669 24.7048267 31.06003234 31.47574735 26.24609375 38.26953125 C26.90617432 38.24745605 27.56625488 38.22538086 28.24633789 38.20263672 C47.21287289 37.75370497 47.21287289 37.75370497 52.0859375 41.38671875 C53.74609375 44.01953125 53.74609375 44.01953125 55.04296875 46.75390625 C56.91122876 50.6602681 59.61595245 52.03559814 63.24609375 54.26953125 C64.73109375 55.25953125 64.73109375 55.25953125 66.24609375 56.26953125 C41.49609375 56.26953125 16.74609375 56.26953125 -8.75390625 56.26953125 C-4.5334203 49.63733905 -0.456107 43.32389957 4.30859375 37.14453125 C8.49809198 31.64042441 12.50320955 26.09179556 16.24609375 20.26953125 C13.27609375 19.93953125 10.30609375 19.60953125 7.24609375 19.26953125 C7.24609375 21.24953125 7.24609375 23.22953125 7.24609375 25.26953125 C6.58609375 25.26953125 5.92609375 25.26953125 5.24609375 25.26953125 C5.01664063 25.95917969 4.7871875 26.64882812 4.55078125 27.359375 C2.95772092 30.91275808 0.76704994 33.79692057 -1.62890625 36.83203125 C-2.06332031 37.39599609 -2.49773437 37.95996094 -2.9453125 38.54101562 C-5.39982896 41.69208405 -7.91405275 44.42967775 -10.75390625 47.26953125 C-10.75390625 37.69953125 -10.75390625 28.12953125 -10.75390625 18.26953125 C-16.03390625 18.26953125 -21.31390625 18.26953125 -26.75390625 18.26953125 C-19.9444155 4.65054976 -16.0338568 -0.7618359 0 0 Z " fill="#1E1917" transform="translate(83.75390625,42.73046875)"/>
<path d="M0 0 C0.99 0 1.98 0 3 0 C3 13.86 3 27.72 3 42 C9.3525 41.855625 15.705 41.71125 22.25 41.5625 C24.2496582 41.51939697 26.24931641 41.47629395 28.30957031 41.43188477 C29.89909716 41.39374939 31.48861602 41.3552792 33.078125 41.31640625 C34.31054932 41.2916925 34.31054932 41.2916925 35.56787109 41.26647949 C36.35919434 41.24629761 37.15051758 41.22611572 37.96582031 41.20532227 C38.64976868 41.18977798 39.33371704 41.1742337 40.03839111 41.15821838 C42.05403773 41.05898125 42.05403773 41.05898125 44.14276123 40.39732361 C44.75565002 40.26620682 45.36853882 40.13509003 46 40 C47.75 41.4375 47.75 41.4375 49 43 C47.73363843 46.47292937 46.28353334 49.24072491 44.05859375 52.1875 C43.47867676 52.96311279 42.89875977 53.73872559 42.30126953 54.5378418 C41.68622559 55.350354 41.07118164 56.16286621 40.4375 57 C39.17169541 58.69290356 37.90737728 60.38691956 36.64453125 62.08203125 C35.71568115 63.32847412 35.71568115 63.32847412 34.76806641 64.60009766 C31.05037349 69.64634474 27.53255789 74.8229755 24 80 C29.28 80 34.56 80 40 80 C39.91878906 78.75605469 39.83757812 77.51210937 39.75390625 76.23046875 C39.3324183 67.03445207 39.08441677 59.80237952 44.92578125 52.171875 C50.19177357 46.65795461 56.02493385 41.82791026 63.88671875 41.62890625 C65.8201546 41.5957313 67.75381376 41.57400243 69.6875 41.5625 C70.64333984 41.52962891 71.59917969 41.49675781 72.58398438 41.46289062 C81.49752935 41.39605423 87.34461988 44.37924102 93.8125 50.375 C96.88882479 53.63018088 98.96924882 57.01972768 101 61 C101.47179687 59.69675781 101.47179687 59.69675781 101.953125 58.3671875 C102.38109375 57.21476562 102.8090625 56.06234375 103.25 54.875 C103.66765625 53.73804688 104.0853125 52.60109375 104.515625 51.4296875 C106.09351401 47.78393342 107.32460605 44.95841083 110 42 C112.88103641 41.15205946 115.57943217 41.20425366 118.5625 41.3125 C119.33013672 41.29767578 120.09777344 41.28285156 120.88867188 41.26757812 C123.12890625 41.30078125 123.12890625 41.30078125 127 42 C128.8671875 44.19921875 128.8671875 44.19921875 130 47 C130.65162109 48.34578125 130.65162109 48.34578125 131.31640625 49.71875 C131.72761719 50.6365625 132.13882813 51.554375 132.5625 52.5 C132.97628906 53.4178125 133.39007813 54.335625 133.81640625 55.28125 C134.92869817 57.83621759 135.98056126 60.40677333 137 63 C137.07347656 61.22882812 137.07347656 61.22882812 137.1484375 59.421875 C137.22348879 57.86456063 137.29903561 56.30727009 137.375 54.75 C137.4059375 53.97269531 137.436875 53.19539063 137.46875 52.39453125 C137.50742188 51.64042969 137.54609375 50.88632812 137.5859375 50.109375 C137.6173584 49.41811523 137.6487793 48.72685547 137.68115234 48.01464844 C138.04590967 45.70991835 138.86724094 44.02704253 140 42 C144.67723114 41.87539142 149.35347364 41.78519377 154.03198242 41.7253418 C155.61971897 41.70036472 157.20734252 41.66637019 158.79467773 41.62280273 C176.43881589 41.15103433 176.43881589 41.15103433 183 47 C186.62928065 50.47890364 188.2302577 53.60519991 188.6640625 58.62890625 C188.67718724 60.27343667 188.6637461 61.91837369 188.625 63.5625 C188.64433594 64.38685547 188.66367187 65.21121094 188.68359375 66.06054688 C188.6346931 72.17801855 187.17141666 74.61042685 183 79 C182.90460404 83.48361009 184.56486283 86.29642884 187.16015625 89.8984375 C188 92 188 92 188 100 C181.73 100 175.46 100 169 100 C163 87.25 163 87.25 163 85 C161.35 85 159.7 85 158 85 C158 89.95 158 94.9 158 100 C148.76 100 139.52 100 130 100 C129.01 97.69 128.02 95.38 127 93 C121.06 93 115.12 93 109 93 C108.01 95.31 107.02 97.62 106 100 C96.43 100 86.86 100 77 100 C79.9417345 98.03884366 82.89097329 96.53770992 86.0625 95 C88.23163505 93.92596291 88.23163505 93.92596291 91 92 C90.34 94.31 89.68 96.62 89 99 C93.62 99 98.24 99 103 99 C103.474375 97.535625 103.94875 96.07125 104.4375 94.5625 C105.875 90.125 105.875 90.125 107 89 C108.63472882 88.91299658 110.27314055 88.89298937 111.91015625 88.90234375 C112.89951172 88.90556641 113.88886719 88.90878906 114.90820312 88.91210938 C115.94912109 88.92048828 116.99003906 88.92886719 118.0625 88.9375 C119.62967773 88.94426758 119.62967773 88.94426758 121.22851562 88.95117188 C123.81903454 88.96300073 126.40952422 88.98093681 129 89 C130.98 93.455 130.98 93.455 133 98 C143.89 98.495 143.89 98.495 155 99 C155 93.39 155 87.78 155 82 C158.3 82 161.6 82 165 82 C167.31 87.28 169.62 92.56 172 98 C176.95 98.33 181.9 98.66 187 99 C183.72087086 91.70442945 183.72087086 91.70442945 180.25 84.5 C179 82 179 82 178 79 C178.78375 78.443125 179.5675 77.88625 180.375 77.3125 C183.84971105 74.25144503 184.8200525 71.71534372 185.30078125 67.1328125 C185.36224859 58.60534332 185.36224859 58.60534332 182 51 C176.02576782 46.14197256 170.86857561 44.91701767 163.265625 44.68359375 C162.09805664 44.64548584 160.93048828 44.60737793 159.72753906 44.56811523 C158.24995117 44.52501221 156.77236328 44.48190918 155.25 44.4375 C150.5475 44.293125 145.845 44.14875 141 44 C141 55.88 141 67.76 141 80 C138.51088751 76.68118334 137.29839341 74.34778407 135.94921875 70.54296875 C133.62135206 64.30658515 130.89322393 58.17438587 128.14453125 52.11376953 C126.85209927 49.22475931 126 47.20349937 126 44 C121.05 44.33 116.1 44.66 111 45 C106.71 55.23 102.42 65.46 98 76 C93.38 76 88.76 76 84 76 C83.34 77.98 82.68 79.96 82 82 C77.45642792 86.31056839 73.47730202 87.46790214 67.35546875 87.41796875 C63.24375027 86.68836033 60.60626633 84.1477344 58 81 C55.09487789 76.33035742 55.25576059 71.32243942 56 66 C57.95296924 61.61165477 60.49266321 58.75737319 65 57 C69.35638525 56.37483897 73.93066119 56.01226826 77.98046875 57.9453125 C81.43548653 60.65814127 82.33198376 62.82995939 84 67 C88.95 67.33 93.9 67.66 99 68 C96.09971408 60.17801675 93.73488287 54.1008923 87 49 C86.45085937 48.56816406 85.90171875 48.13632812 85.3359375 47.69140625 C78.3605467 43.25112444 68.29099136 44.02555562 60.43359375 45.47265625 C53.27025214 47.81370918 47.35687129 53.35368756 43.8671875 59.9453125 C41.8528896 67.04072223 42.74583544 74.73089368 43 82 C35.08 82 27.16 82 19 82 C23.47058908 74.68449059 28.26963608 67.81890521 33.47167969 61.01171875 C37.47556613 55.76211947 41.20191247 50.42583933 45 45 C30.15 44.67 15.3 44.34 0 44 C0 29.48 0 14.96 0 0 Z M61 63 C59.07397845 66.04519623 58.72819992 68.42478708 58.75 72 C58.74484375 72.845625 58.7396875 73.69125 58.734375 74.5625 C59.13099866 78.20210531 60.15737806 80.18324803 62.78125 82.7265625 C65.52564078 84.3016882 67.34996069 84.40096186 70.5 84.375 C71.4384375 84.38273437 72.376875 84.39046875 73.34375 84.3984375 C76.42315045 83.93652743 77.7835299 83.16093213 80 81 C80.309375 79.96875 80.61875 78.9375 80.9375 77.875 C83 75 83 75 86.078125 74.390625 C89.39381415 74.14661324 92.67582467 74.0094841 96 74 C96.33 72.68 96.66 71.36 97 70 C92.05 69.67 87.1 69.34 82 69 C81.34 67.35 80.68 65.7 80 64 C76.84750528 61.16275475 74.50359362 59.17086291 70.25 58.6875 C66.14232771 59.08246849 64.17073386 60.4057632 61 63 Z " fill="#F9F0EE" transform="translate(90,0)"/>
<path d="M0 0 C0.33 0 0.66 0 1 0 C1 4.95 1 9.9 1 15 C-0.65 15 -2.3 15 -4 15 C-4.23460937 15.52078125 -4.46921875 16.0415625 -4.7109375 16.578125 C-6.43185756 19.81136876 -8.52194132 22.75935003 -10.625 25.75 C-12.790625 28.84375 -12.790625 28.84375 -15 32 C-9.72 32 -4.44 32 1 32 C1.33 41.24 1.66 50.48 2 60 C4.289375 56.90625 6.57875 53.8125 8.9375 50.625 C9.65929443 49.65127441 10.38108887 48.67754883 11.12475586 47.67431641 C11.97372437 46.52455322 11.97372437 46.52455322 12.83984375 45.3515625 C13.71177368 44.17327881 13.71177368 44.17327881 14.60131836 42.97119141 C16.03551005 41.05636742 16.03551005 41.05636742 17 39 C17.66 39 18.32 39 19 39 C19 37.02 19 35.04 19 33 C22.3 33 25.6 33 29 33 C25.22640478 39.57960192 21.13303685 45.60712016 16.51171875 51.6171875 C14.6110021 54.12860372 12.8315955 56.70142454 11.08203125 59.3203125 C10.59049561 60.05427246 10.09895996 60.78823242 9.5925293 61.54443359 C8.62575745 62.99740596 7.66734395 64.45597991 6.71801758 65.92041016 C5.55354793 67.66594356 4.28444004 69.34075614 3 71 C2.01 71 1.02 71 0 71 C1.875 66.25 1.875 66.25 3 64 C2.0409375 63.814375 2.0409375 63.814375 1.0625 63.625 C0.381875 63.41875 -0.29875 63.2125 -1 63 C-2.35700647 60.28598706 -2.1123861 58.15153684 -2.09765625 55.1171875 C-2.09443359 53.95058594 -2.09121094 52.78398438 -2.08789062 51.58203125 C-2.07532227 49.74705078 -2.07532227 49.74705078 -2.0625 47.875 C-2.05798828 46.64394531 -2.05347656 45.41289063 -2.04882812 44.14453125 C-2.0370133 41.09630608 -2.02054028 38.04817686 -2 35 C-2.89203125 35.03480469 -3.7840625 35.06960937 -4.703125 35.10546875 C-5.87359375 35.13253906 -7.0440625 35.15960938 -8.25 35.1875 C-9.99023438 35.23970703 -9.99023438 35.23970703 -11.765625 35.29296875 C-15.22268407 34.97982934 -16.51565563 34.34290892 -19 32 C-19.71542969 33.01835938 -20.43085937 34.03671875 -21.16796875 35.0859375 C-26.75535054 43.02689846 -32.37612643 50.94204756 -38.0625 58.8125 C-38.60994873 59.57030762 -39.15739746 60.32811523 -39.72143555 61.10888672 C-42.58664541 65.0678418 -42.58664541 65.0678418 -44 67 C-44.48911865 67.73694092 -44.9782373 68.47388184 -45.48217773 69.2331543 C-45.98305908 69.81621338 -46.48394043 70.39927246 -47 71 C-47.99 71 -48.98 71 -50 71 C-48.436656 66.18122202 -45.68884685 62.69456346 -42.625 58.75 C-38.32369661 53.11676815 -34.12709545 47.43146821 -30.0625 41.625 C-25.34518961 34.89407108 -20.56320534 28.21385297 -15.74145508 21.55737305 C-11.79469567 16.10714329 -7.87495356 10.63841161 -3.98193359 5.1496582 C-1.10613031 1.10613031 -1.10613031 1.10613031 0 0 Z M-3 8 C-3.66 9.65 -4.32 11.3 -5 13 C-4.01 13 -3.02 13 -2 13 C-2 11.35 -2 9.7 -2 8 C-2.33 8 -2.66 8 -3 8 Z M-11 19 C-10 21 -10 21 -10 21 Z M-15 25 C-14 27 -14 27 -14 27 Z M21 35 C21 36.65 21 38.3 21 40 C22.32 38.35 23.64 36.7 25 35 C23.68 35 22.36 35 21 35 Z M19 41 C20 43 20 43 20 43 Z M15 47 C15 50 15 50 15 50 Z M11 52 C12 54 12 54 12 54 Z " fill="#EDE6E5" transform="translate(72,29)"/>
<path d="M0 0 C0.62390625 0.50789063 1.2478125 1.01578125 1.890625 1.5390625 C2.53515625 2.04695313 3.1796875 2.55484375 3.84375 3.078125 C8.71091569 7.39313324 11.06789129 12.3462964 12.890625 18.5390625 C12.890625 19.1990625 12.890625 19.8590625 12.890625 20.5390625 C7.79272128 21.00075944 2.97240503 21.26580586 -2.109375 20.5390625 C-4.32477378 18.64755243 -5.15718778 17.15888912 -6.25 14.484375 C-7.0572869 12.18599688 -7.0572869 12.18599688 -10.109375 10.5390625 C-14.94454891 9.96273372 -19.56024141 9.92586379 -24.109375 11.7265625 C-28.34043442 15.5609601 -29.48863701 19.24163111 -29.796875 24.8515625 C-29.89548828 26.45451172 -29.89548828 26.45451172 -29.99609375 28.08984375 C-30.03347656 28.89808594 -30.07085937 29.70632812 -30.109375 30.5390625 C-32.35343456 27.17297315 -32.2884361 26.60310286 -31.796875 22.7890625 C-31.69246094 21.90476562 -31.58804688 21.02046875 -31.48046875 20.109375 C-31.16885763 17.95105799 -30.77375496 15.80502562 -30.359375 13.6640625 C-30.06001441 9.92205512 -30.79513788 9.31614704 -33.109375 6.5390625 C-33.671875 4.0390625 -33.671875 4.0390625 -33.109375 1.5390625 C-24.53715981 -5.47456811 -9.26445428 -6.32953174 0 0 Z " fill="#DB241C" transform="translate(176.109375,47.4609375)"/>
<path d="M0 0 C6.06966268 -0.41859743 9.20232338 -0.14344799 14 4 C18.28357957 9.12150099 18.64708335 13.10151845 18.5625 19.5 C18.59827148 20.74330078 18.59827148 20.74330078 18.63476562 22.01171875 C18.62008605 28.16735357 17.20711214 30.58652634 13 35 C12.90460404 39.48361009 14.56486283 42.29642884 17.16015625 45.8984375 C18 48 18 48 18 56 C11.73 56 5.46 56 -1 56 C-7 43.25 -7 43.25 -7 41 C-8.65 41 -10.3 41 -12 41 C-12 45.95 -12 50.9 -12 56 C-21.24 56 -30.48 56 -40 56 C-40.99 53.69 -41.98 51.38 -43 49 C-48.94 49 -54.88 49 -61 49 C-61.99 51.31 -62.98 53.62 -64 56 C-73.57 56 -83.14 56 -93 56 C-90.0582655 54.03884366 -87.10902671 52.53770992 -83.9375 51 C-81.76836495 49.92596291 -81.76836495 49.92596291 -79 48 C-79.66 50.31 -80.32 52.62 -81 55 C-76.38 55 -71.76 55 -67 55 C-66.525625 53.535625 -66.05125 52.07125 -65.5625 50.5625 C-64.125 46.125 -64.125 46.125 -63 45 C-61.36527118 44.91299658 -59.72685945 44.89298937 -58.08984375 44.90234375 C-56.60581055 44.90717773 -56.60581055 44.90717773 -55.09179688 44.91210938 C-54.05087891 44.92048828 -53.00996094 44.92886719 -51.9375 44.9375 C-50.37032227 44.94426758 -50.37032227 44.94426758 -48.77148438 44.95117188 C-46.18096546 44.96300073 -43.59047578 44.98093681 -41 45 C-39.68 47.97 -38.36 50.94 -37 54 C-26.11 54.495 -26.11 54.495 -15 55 C-15 49.39 -15 43.78 -15 38 C-11.7 38 -8.4 38 -5 38 C-2.69 43.28 -0.38 48.56 2 54 C6.95 54.33 11.9 54.66 17 55 C13.72087086 47.70442945 13.72087086 47.70442945 10.25 40.5 C9 38 9 38 8 35 C8.78375 34.443125 9.5675 33.88625 10.375 33.3125 C13.84971105 30.25144503 14.8200525 27.71534372 15.30078125 23.1328125 C15.36224859 14.60534332 15.36224859 14.60534332 12 7 C8.31855074 4.07672607 4.19623553 2.07464889 0 0 Z " fill="#F8E2DF" transform="translate(260,44)"/>
<path d="M0 0 C0.99 0 1.98 0 3 0 C3 13.86 3 27.72 3 42 C9.3525 41.855625 15.705 41.71125 22.25 41.5625 C24.2496582 41.51939697 26.24931641 41.47629395 28.30957031 41.43188477 C29.89909716 41.39374939 31.48861602 41.3552792 33.078125 41.31640625 C34.31054932 41.2916925 34.31054932 41.2916925 35.56787109 41.26647949 C36.35919434 41.24629761 37.15051758 41.22611572 37.96582031 41.20532227 C38.64976868 41.18977798 39.33371704 41.1742337 40.03839111 41.15821838 C42.05403773 41.05898125 42.05403773 41.05898125 44.14276123 40.39732361 C44.75565002 40.26620682 45.36853882 40.13509003 46 40 C47.75 41.4375 47.75 41.4375 49 43 C47.73363843 46.47292937 46.28353334 49.24072491 44.05859375 52.1875 C43.47867676 52.96311279 42.89875977 53.73872559 42.30126953 54.5378418 C41.68622559 55.350354 41.07118164 56.16286621 40.4375 57 C39.17169541 58.69290356 37.90737728 60.38691956 36.64453125 62.08203125 C35.71568115 63.32847412 35.71568115 63.32847412 34.76806641 64.60009766 C31.05037349 69.64634474 27.53255789 74.8229755 24 80 C29.28 80 34.56 80 40 80 C40 75.38 40 70.76 40 66 C40.66 66 41.32 66 42 66 C42.495 73.92 42.495 73.92 43 82 C35.08 82 27.16 82 19 82 C23.47058908 74.68449059 28.26963608 67.81890521 33.47167969 61.01171875 C37.47556613 55.76211947 41.20191247 50.42583933 45 45 C30.15 44.67 15.3 44.34 0 44 C0 29.48 0 14.96 0 0 Z " fill="#CDAAA7" transform="translate(90,0)"/>
<path d="M0 0 C9.57 0 19.14 0 29 0 C28.67 0.66 28.34 1.32 28 2 C24.7 1.67 21.4 1.34 18 1 C18 2.98 18 4.96 18 7 C17.34 7 16.68 7 16 7 C15.77054688 7.68964844 15.54109375 8.37929687 15.3046875 9.08984375 C13.71162717 12.64322683 11.52095619 15.52738932 9.125 18.5625 C8.69058594 19.12646484 8.25617188 19.69042969 7.80859375 20.27148438 C5.35407729 23.4225528 2.8398535 26.1601465 0 29 C0 19.43 0 9.86 0 0 Z " fill="#DD241C" transform="translate(73,61)"/>
<path d="M0 0 C0.99 0.33 1.98 0.66 3 1 C-4.70242674 11.96381464 -12.48429635 22.86597814 -20.34570312 33.71630859 C-23.12918202 37.55879112 -25.90874599 41.4040997 -28.6875 45.25 C-29.23140381 46.00273193 -29.77530762 46.75546387 -30.33569336 47.53100586 C-33.57060922 52.01113673 -36.79231086 56.50034313 -40 61 C-48.8667199 73.43232741 -57.76873822 85.8347713 -67 98 C-67.703125 96.30078125 -67.703125 96.30078125 -68 94 C-66.734375 91.73046875 -66.734375 91.73046875 -64.75 89.1875 C-64.01007813 88.218125 -63.27015625 87.24875 -62.5078125 86.25 C-61.89921387 85.46496094 -61.89921387 85.46496094 -61.27832031 84.6640625 C-59.00901529 81.70997865 -56.82254424 78.69511481 -54.625 75.6875 C-54.15876221 75.05231445 -53.69252441 74.41712891 -53.2121582 73.76269531 C-48.82744773 67.78567041 -44.51686542 61.75714852 -40.22070312 55.71630859 C-33.7952258 46.68208748 -27.33012515 37.67731211 -20.83251953 28.69482422 C-17.39088424 23.93442195 -13.96887744 19.16067895 -10.5625 14.375 C-7.11176825 9.52855943 -3.5999853 4.73682276 0 0 Z " fill="#FAEEED" transform="translate(68,0)"/>
<path d="M0 0 C4.63830615 2.21394495 6.0917037 5.22925925 8 10 C14.93 10.495 14.93 10.495 22 11 C22 11.33 22 11.66 22 12 C7.47083634 13.07560201 7.47083634 13.07560201 3.96484375 10.51171875 C2.8116127 8.72068789 1.90289131 6.92587161 1 5 C-2.19844879 2.62695735 -5.08575765 2.60058752 -9 3 C-12.79289984 4.72404538 -14.47951381 6.15446543 -16 10 C-16.27751792 12.45474223 -16.27751792 12.45474223 -16.1875 15 C-16.18105469 15.845625 -16.17460937 16.69125 -16.16796875 17.5625 C-15.94882078 20.86454991 -15.94882078 20.86454991 -15 24 C-10.64509453 27.09089663 -5.08685364 26.76340597 0 26 C3.04475302 23.79086457 3.04475302 23.79086457 5 21 C5.99 20.34 6.98 19.68 8 19 C6.76141604 23.95433585 5.27241667 26.18645731 1 29 C-3.09837332 30.36612444 -6.72419499 30.75872494 -11 30 C-15.17195451 27.58796603 -18.22859481 24.51128891 -20 20 C-20.78796856 14.58375292 -20.91527646 9.57341259 -17.75 4.9375 C-13.18028646 -0.83105814 -6.8846985 -0.97641165 0 0 Z " fill="#F9E5E0" transform="translate(166,57)"/>
<path d="M0 0 C0.95583984 -0.03287109 1.91167969 -0.06574219 2.89648438 -0.09960938 C11.07116391 -0.16090554 16.37769273 2.21870941 22.65234375 7.3515625 C23.17957031 7.91617188 23.70679688 8.48078125 24.25 9.0625 C24.79527344 9.63226563 25.34054688 10.20203125 25.90234375 10.7890625 C28.68689394 14.04413225 29.55952308 15.91520386 29.4375 20.125 C29.41945312 20.93324219 29.40140625 21.74148437 29.3828125 22.57421875 C29.35960937 23.18910156 29.33640625 23.80398437 29.3125 24.4375 C27.75357761 22.09911642 26.77040441 20.2176505 25.6875 17.6875 C22.31565807 10.85574565 16.27703423 6.28892162 9.3125 3.4375 C6.58501576 3.15187023 4.1515027 3.00664708 1.4375 3.0625 C0.72859619 3.07265137 0.01969238 3.08280273 -0.71069336 3.09326172 C-8.45600979 3.32324119 -14.20335342 5.16259861 -20.01171875 10.41015625 C-23.44198567 14.56005959 -25.52503771 19.5422557 -27.6875 24.4375 C-28.3475 24.4375 -29.0075 24.4375 -29.6875 24.4375 C-30.256566 17.88138547 -26.57179356 13.42636669 -22.6875 8.4375 C-15.51647885 1.70552096 -9.64315295 0.05736178 0 0 Z " fill="#F7E5E3" transform="translate(159.6875,41.5625)"/>
<path d="M0 0 C1.54796341 0.03969137 3.09538137 0.11099637 4.640625 0.2109375 C5.82978516 0.25154297 5.82978516 0.25154297 7.04296875 0.29296875 C8.99335866 0.36346477 10.94234401 0.47108251 12.890625 0.5859375 C13.550625 1.9059375 14.210625 3.2259375 14.890625 4.5859375 C13.900625 4.2559375 12.910625 3.9259375 11.890625 3.5859375 C6.940625 3.5859375 1.990625 3.5859375 -3.109375 3.5859375 C-7.399375 13.8159375 -11.689375 24.0459375 -16.109375 34.5859375 C-21.059375 34.9159375 -26.009375 35.2459375 -31.109375 35.5859375 C-32.099375 36.0809375 -32.099375 36.0809375 -33.109375 36.5859375 C-32.449375 35.2659375 -31.789375 33.9459375 -31.109375 32.5859375 C-26.819375 32.5859375 -22.529375 32.5859375 -18.109375 32.5859375 C-17.779375 31.2659375 -17.449375 29.9459375 -17.109375 28.5859375 C-21.399375 28.5859375 -25.689375 28.5859375 -30.109375 28.5859375 C-30.109375 28.2559375 -30.109375 27.9259375 -30.109375 27.5859375 C-25.489375 27.2559375 -20.869375 26.9259375 -16.109375 26.5859375 C-16.109375 23.9459375 -16.109375 21.3059375 -16.109375 18.5859375 C-15.119375 18.9159375 -14.129375 19.2459375 -13.109375 19.5859375 C-12.79484375 18.71710937 -12.4803125 17.84828125 -12.15625 16.953125 C-11.72828125 15.80070312 -11.3003125 14.64828125 -10.859375 13.4609375 C-10.44171875 12.32398438 -10.0240625 11.18703125 -9.59375 10.015625 C-5.38381589 0.28846146 -5.38381589 0.28846146 0 0 Z " fill="#FCF8F7" transform="translate(204.109375,41.4140625)"/>
<path d="M0 0 C6.06966268 -0.41859743 9.20232338 -0.14344799 14 4 C18.28357957 9.12150099 18.64708335 13.10151845 18.5625 19.5 C18.58634766 20.32886719 18.61019531 21.15773438 18.63476562 22.01171875 C18.62006846 28.17473028 17.19549017 30.57179643 13 35 C13 39.42502492 14.32071395 41.62176976 17 45 C17 45.99 17 46.98 17 48 C13.51236025 46.83745342 12.93391627 46.02699938 11 43 C9.84230834 40.36303565 8.91084677 37.7325403 8 35 C8.78375 34.443125 9.5675 33.88625 10.375 33.3125 C13.84971105 30.25144503 14.8200525 27.71534372 15.30078125 23.1328125 C15.36224859 14.60534332 15.36224859 14.60534332 12 7 C8.31855074 4.07672607 4.19623553 2.07464889 0 0 Z " fill="#FAE8E7" transform="translate(260,44)"/>
<path d="M0 0 C0.66 0 1.32 0 2 0 C2 13.86 2 27.72 2 42 C8.3525 41.855625 14.705 41.71125 21.25 41.5625 C23.2496582 41.51939697 25.24931641 41.47629395 27.30957031 41.43188477 C28.89909716 41.39374939 30.48861602 41.3552792 32.078125 41.31640625 C33.31054932 41.2916925 33.31054932 41.2916925 34.56787109 41.26647949 C35.35919434 41.24629761 36.15051758 41.22611572 36.96582031 41.20532227 C37.64976868 41.18977798 38.33371704 41.1742337 39.03839111 41.15821838 C41.0533899 41.05794109 41.0533899 41.05794109 43.14276123 40.40513611 C43.75565002 40.27144119 44.36853882 40.13774628 45 40 C46.75 41.3125 46.75 41.3125 48 43 C48 43.66 48 44.32 48 45 C47.34 45 46.68 45 46 45 C46 44.34 46 43.68 46 43 C30.82 43 15.64 43 0 43 C0 28.81 0 14.62 0 0 Z " fill="#FFF8F8" transform="translate(91,0)"/>
<path d="M0 0 C0.66 0.33 1.32 0.66 2 1 C0.4230338 5.9103139 -2.44499558 9.4837077 -5.5625 13.5 C-10.27348543 19.66560799 -14.79089777 25.91662467 -19.16015625 32.328125 C-19.76730469 33.20984375 -20.37445313 34.0915625 -21 35 C-21.77150391 36.16789062 -21.77150391 36.16789062 -22.55859375 37.359375 C-23.03425781 37.90078125 -23.50992187 38.4421875 -24 39 C-24.99 39 -25.98 39 -27 39 C-25.43671732 34.18141102 -22.68917215 30.6942292 -19.625 26.75 C-14.50198402 20.04970272 -9.57714232 13.23500024 -4.74658203 6.32128906 C-1.083811 1.083811 -1.083811 1.083811 0 0 Z " fill="#F9E7E5" transform="translate(49,61)"/>
<path d="M0 0 C2.27024968 -0.08097324 4.54132075 -0.13917704 6.8125 -0.1875 C8.07707031 -0.22230469 9.34164062 -0.25710937 10.64453125 -0.29296875 C14 0 14 0 15.92578125 1.29296875 C17.74109309 4.17766429 17.35319931 6.70347311 17 10 C15.92578125 11.70703125 15.92578125 11.70703125 14 13 C10.64453125 13.29296875 10.64453125 13.29296875 6.8125 13.1875 C5.54019531 13.16042969 4.26789063 13.13335937 2.95703125 13.10546875 C1.98121094 13.07066406 1.00539062 13.03585938 0 13 C0 8.71 0 4.42 0 0 Z M3 3 C3 5.64 3 8.28 3 11 C4.62463842 11.05395478 6.24978541 11.09277195 7.875 11.125 C8.77992188 11.14820312 9.68484375 11.17140625 10.6171875 11.1953125 C13.18806994 11.24324836 13.18806994 11.24324836 15 9 C14.71016731 5.69316534 14.71016731 5.69316534 13 3 C11.31391034 2.92794489 9.62499341 2.91613932 7.9375 2.9375 C7.01839844 2.94652344 6.09929687 2.95554688 5.15234375 2.96484375 C4.44207031 2.97644531 3.73179687 2.98804688 3 3 Z " fill="#F6DBDA" transform="translate(245,57)"/>
<path d="M0 0 C3.3 0 6.6 0 10 0 C12.31 5.28 14.62 10.56 17 16 C21.95 16.33 26.9 16.66 32 17 C31.01 15.02 30.02 13.04 29 11 C29.33 10.34 29.66 9.68 30 9 C30.99 9.33 31.98 9.66 33 10 C33 12.64 33 15.28 33 18 C26.73 18 20.46 18 14 18 C8 5.375 8 5.375 8 2 C5.69 2 3.38 2 1 2 C1 6.95 1 11.9 1 17 C0.67 17 0.34 17 0 17 C0 11.39 0 5.78 0 0 Z " fill="#F3CAC6" transform="translate(245,82)"/>
<path d="M0 0 C0.66 0 1.32 0 2 0 C2.144375 1.0725 2.28875 2.145 2.4375 3.25 C2.623125 4.4875 2.80875 5.725 3 7 C3.1546875 8.1446875 3.1546875 8.1446875 3.3125 9.3125 C3.87014884 11.14868165 3.87014884 11.14868165 5.703125 12.078125 C9.99694154 13.80149354 14.4684001 13.68007666 19 13 C22.04475302 10.79086457 22.04475302 10.79086457 24 8 C24.99 7.34 25.98 6.68 27 6 C25.76141604 10.95433585 24.27241667 13.18645731 20 16 C15.90682172 17.36439276 12.26970603 17.77052642 8 17 C4.6216465 14.96673169 1.77653511 12.55307023 0 9 C-0.06950541 7.45976004 -0.08452357 5.91665012 -0.0625 4.375 C-0.05347656 3.55773437 -0.04445312 2.74046875 -0.03515625 1.8984375 C-0.02355469 1.27195312 -0.01195312 0.64546875 0 0 Z " fill="#F6E9E6" transform="translate(147,70)"/>
<path d="M0 0 C9.57 0 19.14 0 29 0 C28.67 0.66 28.34 1.32 28 2 C24.7 1.67 21.4 1.34 18 1 C18 2.98 18 4.96 18 7 C17.67 7 17.34 7 17 7 C17 5.02 17 3.04 17 1 C12.05 1 7.1 1 2 1 C2.14035305 4.62528953 2.28702517 8.25012883 2.4375 11.875 C2.47681641 12.90753906 2.51613281 13.94007812 2.55664062 15.00390625 C2.59853516 15.99003906 2.64042969 16.97617188 2.68359375 17.9921875 C2.72025146 18.90339355 2.75690918 19.81459961 2.79467773 20.75341797 C2.86577065 23.03483481 2.86577065 23.03483481 4 25 C2.68 26.32 1.36 27.64 0 29 C0 19.43 0 9.86 0 0 Z " fill="#C43935" transform="translate(73,61)"/>
<path d="M0 0 C0.66 0 1.32 0 2 0 C2.495 7.92 2.495 7.92 3 16 C-4.92 16 -12.84 16 -21 16 C-20.01 14.35 -19.02 12.7 -18 11 C-17.34 11.33 -16.68 11.66 -16 12 C-16 12.66 -16 13.32 -16 14 C-10.72 14 -5.44 14 0 14 C0 9.38 0 4.76 0 0 Z " fill="#EBE3E1" transform="translate(130,66)"/>
<path d="M0 0 C0.66 0.99 1.32 1.98 2 3 C1.34 5.31 0.68 7.62 0 10 C-9.57 10 -19.14 10 -29 10 C-26.0582655 8.03884366 -23.10902671 6.53770992 -19.9375 5 C-17.76836495 3.92596291 -17.76836495 3.92596291 -15 2 C-15.66 4.31 -16.32 6.62 -17 9 C-12.38 9 -7.76 9 -3 9 C-2.01 6.03 -1.02 3.06 0 0 Z " fill="#EDB6B5" transform="translate(196,90)"/>
<path d="M0 0 C0.66 0 1.32 0 2 0 C2.67260351 1.76858691 3.33788395 3.53996016 4 5.3125 C4.37125 6.29863281 4.7425 7.28476563 5.125 8.30078125 C6 11 6 11 6 14 C2.7 14 -0.6 14 -4 14 C-3.36843005 8.94744036 -1.86540627 4.70406799 0 0 Z M0 8 C-0.33 9.32 -0.66 10.64 -1 12 C0.32 12 1.64 12 3 12 C2.67 10.68 2.34 9.36 2 8 C1.34 8 0.68 8 0 8 Z " fill="#F5D8D6" transform="translate(207,62)"/>
<path d="M0 0 C11.22 0 22.44 0 34 0 C34.495 0.99 34.495 0.99 35 2 C17.675 2.495 17.675 2.495 0 3 C0 2.01 0 1.02 0 0 Z " fill="#FEFDFD" transform="translate(230,42)"/>
<path d="M0 0 C2 2 2 2 2.1953125 5.2578125 C2.13020833 8.83854167 2.06510417 12.41927083 2 16 C-5.26 16 -12.52 16 -20 16 C-20 15.34 -20 14.68 -20 14 C-13.4 14 -6.8 14 0 14 C0 9.38 0 4.76 0 0 Z " fill="#D82017" transform="translate(243,83)"/>
<path d="M0 0 C6.09498863 -0.42034404 9.12887953 -0.07814737 14 4 C16.79125839 6.61928512 17.21682318 8.71626735 17.36328125 12.40625 C17.36195676 14.10425052 17.34450791 15.80230067 17.3125 17.5 C17.31733398 18.78197266 17.31733398 18.78197266 17.32226562 20.08984375 C17.28573169 24.34770761 17.14285154 27.23361451 15 31 C14.67 30.34 14.34 29.68 14 29 C14.33 28.01 14.66 27.02 15 26 C15.52158393 19.13916528 15.83794772 12.87685744 12 7 C8.31855074 4.07672607 4.19623553 2.07464889 0 0 Z " fill="#F3C5C2" transform="translate(260,44)"/>
<path d="M0 0 C2.84683647 1.03576391 3.86384838 1.76643603 5.4140625 4.42578125 C5.81367188 5.37839844 6.21328125 6.33101562 6.625 7.3125 C7.23214844 8.72982422 7.23214844 8.72982422 7.8515625 10.17578125 C8.23054687 11.10777344 8.60953125 12.03976563 9 13 C9.38671875 13.88429688 9.7734375 14.76859375 10.171875 15.6796875 C11.17945963 18.50282557 10.81212944 20.15754696 10 23 C6.74050304 19.24907119 5.14193882 14.92759097 3.3125 10.375 C2.99216797 9.59898438 2.67183594 8.82296875 2.34179688 8.0234375 C0 2.2713053 0 2.2713053 0 0 Z " fill="#F9E9E8" transform="translate(216,45)"/>
<path d="M0 0 C0.66 0.33 1.32 0.66 2 1 C1.49396008 3.16874252 1.00016187 4.99967627 0 7 C5.28 7.33 10.56 7.66 16 8 C15.67 13.94 15.34 19.88 15 26 C14.67 26 14.34 26 14 26 C14 20.39 14 14.78 14 9 C9.1171875 9.14648438 9.1171875 9.14648438 4.234375 9.29296875 C0.70129584 8.97294346 -0.36277963 8.22296673 -3 6 C-3.99 6 -4.98 6 -6 6 C-4.02 4.02 -2.04 2.04 0 0 Z " fill="#FEFEFE" transform="translate(56,55)"/>
<path d="M0 0 C2.0625 0.75 2.0625 0.75 4 2 C4.495 3.485 4.495 3.485 5 5 C4.34 5 3.68 5 3 5 C3 4.34 3 3.68 3 3 C-11.52 3 -26.04 3 -41 3 C-41 2.67 -41 2.34 -41 2 C-39.82904785 1.97494385 -38.6580957 1.9498877 -37.45166016 1.92407227 C-33.11674622 1.83006297 -28.78199496 1.72982659 -24.44726562 1.62768555 C-22.56937458 1.58431211 -20.69144348 1.54263882 -18.81347656 1.50268555 C-16.1177156 1.44504124 -13.42215673 1.38133019 -10.7265625 1.31640625 C-9.88380768 1.29969376 -9.04105286 1.28298126 -8.17276001 1.26576233 C-3.9513339 1.26763856 -3.9513339 1.26763856 0 0 Z " fill="#E9E9E8" transform="translate(134,40)"/>
<path d="M0 0 C0.33 0.99 0.66 1.98 1 3 C-0.07421875 4.5078125 -0.07421875 4.5078125 -1.6875 6.125 C-5.24610883 9.99882359 -7.12244959 14.12941334 -9 19 C-9.66 19 -10.32 19 -11 19 C-11.42813199 14.47168092 -10.21441826 12.13375558 -7.75 8.375 C-7.14671875 7.43398438 -6.5434375 6.49296875 -5.921875 5.5234375 C-4.11374911 3.1493535 -2.47548608 1.63206826 0 0 Z " fill="#FCF8F7" transform="translate(141,47)"/>
<path d="M0 0 C0.33 0.66 0.66 1.32 1 2 C-0.85909937 6.33176288 -3.30259126 10.06787355 -6.0625 13.875 C-6.75472656 14.84179688 -7.44695312 15.80859375 -8.16015625 16.8046875 C-8.76730469 17.52914062 -9.37445313 18.25359375 -10 19 C-10.66 19 -11.32 19 -12 19 C-11.39386998 15.87586715 -10.39972557 13.86630076 -8.49609375 11.328125 C-8.00302734 10.66425781 -7.50996094 10.00039062 -7.00195312 9.31640625 C-6.48568359 8.63449219 -5.96941406 7.95257813 -5.4375 7.25 C-4.65729492 6.20392578 -4.65729492 6.20392578 -3.86132812 5.13671875 C-2.57985819 3.42025444 -1.29067202 1.70955569 0 0 Z " fill="#DFDFDF" transform="translate(125,59)"/>
<path d="M0 0 C3.3 0 6.6 0 10 0 C7.03 4.95 7.03 4.95 4 10 C3.34 9.01 2.68 8.02 2 7 C2.99 5.68 3.98 4.36 5 3 C4.01 2.67 3.02 2.34 2 2 C1.67 3.32 1.34 4.64 1 6 C0.67 6 0.34 6 0 6 C0 4.02 0 2.04 0 0 Z " fill="#F1F0EF" transform="translate(91,62)"/>
<path d="M0 0 C3.76024616 2.50683077 4.39192086 4.86493934 6 9 C10.29 9 14.58 9 19 9 C19 9.66 19 10.32 19 11 C5.48400019 12.22409055 5.48400019 12.22409055 1.92578125 9.2890625 C0.68245913 7.22059266 -0.2216019 5.28024854 -1 3 C-1.33 2.34 -1.66 1.68 -2 1 C-1.34 0.67 -0.68 0.34 0 0 Z " fill="#DB4742" transform="translate(170,57)"/>
<path d="M0 0 C0.66 0.33 1.32 0.66 2 1 C0.68 4.3 -0.64 7.6 -2 11 C-2.66 11 -3.32 11 -4 11 C-4 13.31 -4 15.62 -4 18 C-4.33 18 -4.66 18 -5 18 C-5.86140345 7.41430867 -5.86140345 7.41430867 -2.5 2.8125 C-1.675 1.884375 -0.85 0.95625 0 0 Z " fill="#F1C3C1" transform="translate(151,59)"/>
<path d="M0 0 C0.66 1.32 1.32 2.64 2 4 C0.02 6.64 -1.96 9.28 -4 12 C-5.32 11.67 -6.64 11.34 -8 11 C-5.36 7.37 -2.72 3.74 0 0 Z " fill="#F7DFDC" transform="translate(37,77)"/>
<path d="M0 0 C0.33 0 0.66 0 1 0 C1.125 2.375 1.125 2.375 1 5 C-1 7 -1 7 -4.0390625 7.1953125 C-5.22242188 7.17210938 -6.40578125 7.14890625 -7.625 7.125 C-8.81351563 7.10695313 -10.00203125 7.08890625 -11.2265625 7.0703125 C-12.14179688 7.04710938 -13.05703125 7.02390625 -14 7 C-13.34 5.68 -12.68 4.36 -12 3 C-12 3.66 -12 4.32 -12 5 C-10.3739713 4.93999894 -8.74898451 4.8512115 -7.125 4.75 C-6.22007812 4.70359375 -5.31515625 4.6571875 -4.3828125 4.609375 C-1.82889456 4.24388852 -1.82889456 4.24388852 -0.6796875 1.953125 C-0.34324219 0.98632812 -0.34324219 0.98632812 0 0 Z " fill="#FDFCFB" transform="translate(260,63)"/>
<path d="M0 0 C0.99 0.33 1.98 0.66 3 1 C3 1.99 3 2.98 3 4 C-1.95 4 -6.9 4 -12 4 C-12 3.34 -12 2.68 -12 2 C-6.06 1.505 -6.06 1.505 0 1 C0 0.67 0 0.34 0 0 Z " fill="#D81E16" transform="translate(274,95)"/>
<path d="M0 0 C0.33 0.99 0.66 1.98 1 3 C0.67 3.66 0.34 4.32 0 5 C-4.62 5 -9.24 5 -14 5 C-14 4.01 -14 3.02 -14 2 C-9.71 2 -5.42 2 -1 2 C-0.67 1.34 -0.34 0.68 0 0 Z " fill="#D81E16" transform="translate(193,94)"/>
<path d="M0 0 C1.32 0.33 2.64 0.66 4 1 C4 3.64 4 6.28 4 9 C-1.61 9 -7.22 9 -13 9 C-12.67 8.34 -12.34 7.68 -12 7 C-7.05 7.33 -2.1 7.66 3 8 C1.515 5.03 1.515 5.03 0 2 C0 1.34 0 0.68 0 0 Z " fill="#EDBBB7" transform="translate(274,91)"/>
<path d="M0 0 C0.99 0.66 1.98 1.32 3 2 C3.66 1.67 4.32 1.34 5 1 C4.625 3.4375 4.625 3.4375 4 6 C3.01 6.495 3.01 6.495 2 7 C1.67 6.34 1.34 5.68 1 5 C-1.475 6.485 -1.475 6.485 -4 8 C-3.40072174 4.64404172 -2.15377564 2.62198774 0 0 Z " fill="#F2E1E0" transform="translate(80,81)"/>
<path d="M0 0 C0.33 0.99 0.66 1.98 1 3 C1.99 3.33 2.98 3.66 4 4 C4 3.34 4 2.68 4 2 C4.99 2.33 5.98 2.66 7 3 C7 3.99 7 4.98 7 6 C3.7 6 0.4 6 -3 6 C-3 5.34 -3 4.68 -3 4 C-2.34 4 -1.68 4 -1 4 C-0.67 2.68 -0.34 1.36 0 0 Z " fill="#FCF7F6" transform="translate(206,70)"/>
<path d="M0 0 C0.66 0.99 1.32 1.98 2 3 C1.125 6.6875 1.125 6.6875 0 10 C-0.99 10 -1.98 10 -3 10 C-2.39009109 6.44219804 -1.4216319 3.3171411 0 0 Z " fill="#F4D2CF" transform="translate(196,90)"/>
<path d="M0 0 C0.33 0.99 0.66 1.98 1 3 C0.00390625 4.82421875 0.00390625 4.82421875 -1.4375 6.6875 C-1.91058594 7.31011719 -2.38367187 7.93273438 -2.87109375 8.57421875 C-3.24363281 9.04472656 -3.61617187 9.51523437 -4 10 C-4.66 8.68 -5.32 7.36 -6 6 C-4 4 -2 2 0 0 Z " fill="#EFEDED" transform="translate(63,48)"/>
<path d="M0 0 C0.99 0 1.98 0 3 0 C1.6062718 4.43458973 -0.60582235 6.87378374 -4 10 C-2.99806563 6.20696275 -2.18975773 3.28463659 0 0 Z " fill="#E9E8E8" transform="translate(129,53)"/>
<path d="M0 0 C0.33 0.66 0.66 1.32 1 2 C-0.97583004 7.23013834 -3.66637965 9.72570907 -8 13 C-6.53181332 9.89257577 -4.79975 7.09528261 -2.875 4.25 C-2.33617187 3.45078125 -1.79734375 2.6515625 -1.2421875 1.828125 C-0.62730469 0.92320313 -0.62730469 0.92320313 0 0 Z " fill="#F5D5CF" transform="translate(58,48)"/>
<path d="M0 0 C0.33 0 0.66 0 1 0 C1.26218749 3.14624993 1.24754367 4.61837017 -0.5 7.3125 C-1.2425 8.1478125 -1.2425 8.1478125 -2 9 C-2.99 8.67 -3.98 8.34 -5 8 C-4.19185349 6.66402348 -3.37836819 5.331275 -2.5625 4 C-2.11003906 3.2575 -1.65757813 2.515 -1.19140625 1.75 C-0.79824219 1.1725 -0.40507812 0.595 0 0 Z " fill="#FBF6F5" transform="translate(22,63)"/>
<path d="M0 0 C1 2 1 2 0.25 4.4375 C-0.93098981 6.85852911 -1.9831559 8.25818009 -4 10 C-4.99 9.67 -5.98 9.34 -7 9 C-4.69 6.03 -2.38 3.06 0 0 Z " fill="#DA2C29" transform="translate(41,42)"/>
<path d="M0 0 C0.99 0 1.98 0 3 0 C3 3.3 3 6.6 3 10 C2.34 9.67 1.68 9.34 1 9 C1 7.35 1 5.7 1 4 C0.34 3.67 -0.32 3.34 -1 3 C-0.67 2.01 -0.34 1.02 0 0 Z " fill="#FAF9F7" transform="translate(69,33)"/>
<path d="M0 0 C0 0.99 0 1.98 0 3 C-3.63 3 -7.26 3 -11 3 C-7.11595442 0.41063628 -4.5725325 -0.12358196 0 0 Z " fill="#F8E0DD" transform="translate(178,97)"/>
<path d="M0 0 C0.33 0 0.66 0 1 0 C0.75 3.375 0.75 3.375 0 7 C-2.16923658 8.6094336 -3.31923129 9 -6 9 C-5.1875 7.0625 -5.1875 7.0625 -4 5 C-3.01 4.67 -2.02 4.34 -1 4 C-0.26676204 1.98491642 -0.26676204 1.98491642 0 0 Z " fill="#D91B16" transform="translate(89,63)"/>
<path d="M0 0 C0.33 0.66 0.66 1.32 1 2 C-1.16798732 7.4770206 -1.16798732 7.4770206 -4.1875 9.375 C-4.785625 9.58125 -5.38375 9.7875 -6 10 C-4.6302836 6.00499382 -2.74277578 3.19990508 0 0 Z " fill="#D4D3D3" transform="translate(125,59)"/>
<path d="M0 0 C0.33 0 0.66 0 1 0 C1 4.95 1 9.9 1 15 C-0.32 14.67 -1.64 14.34 -3 14 C-2.01 14 -1.02 14 0 14 C0 10.7 0 7.4 0 4 C-0.66 4 -1.32 4 -2 4 C-1.34 2.68 -0.68 1.36 0 0 Z " fill="#EAD2CF" transform="translate(72,29)"/>
<path d="M0 0 C2.7972908 2.06756277 3.02692273 3.14440371 3.6875 6.6875 C3.790625 7.780625 3.89375 8.87375 4 10 C3.34 10 2.68 10 2 10 C0.68373308 6.38026598 0 3.90432869 0 0 Z " fill="#F8E6E2" transform="translate(218,90)"/>
<path d="M0 0 C1 3 1 3 0.22265625 4.82421875 C-0.8515625 6.54947917 -1.92578125 8.27473958 -3 10 C-3.66 10 -4.32 10 -5 10 C-3.84414715 6.08788267 -2.64465038 3.1254959 0 0 Z " fill="#D82F2E" transform="translate(138,53)"/>
<path d="M0 0 C0 3 0 3 -2 5.1875 C-2.66 5.785625 -3.32 6.38375 -4 7 C-4.33 6.01 -4.66 5.02 -5 4 C-3 1 -3 1 0 0 Z " fill="#F9E6E2" transform="translate(92,67)"/>
<path d="M0 0 C1.65 0.99 3.3 1.98 5 3 C4.67 4.65 4.34 6.3 4 8 C1.84622436 5.37801226 0.59927826 3.35595828 0 0 Z " fill="#F5D7D3" transform="translate(222,60)"/>
<path d="M0 0 C1.9375 0.8125 1.9375 0.8125 4 2 C4.33 2.99 4.66 3.98 5 5 C4.34 5 3.68 5 3 5 C3 4.34 3 3.68 3 3 C0.69 3 -1.62 3 -4 3 C-2.68 2.01 -1.36 1.02 0 0 Z " fill="#FAFAFA" transform="translate(134,40)"/>
<path d="M0 0 C1 3 1 3 0 6 C-2.5625 7.6875 -2.5625 7.6875 -5 9 C-3.7508258 5.54074837 -2.32472205 2.85306797 0 0 Z " fill="#F4D5D2" transform="translate(68,34)"/>
<path d="M0 0 C1.98 0.99 1.98 0.99 4 2 C4 4.31 4 6.62 4 9 C3.71125 8.38125 3.4225 7.7625 3.125 7.125 C2.06279958 4.86674235 2.06279958 4.86674235 0 3 C0 2.01 0 1.02 0 0 Z " fill="#F7E9E5" transform="translate(258,58)"/>
<path d="M0 0 C2.64 0 5.28 0 8 0 C8.66 1.32 9.32 2.64 10 4 C6.7 3.01 3.4 2.02 0 1 C0 0.67 0 0.34 0 0 Z " fill="#F6DFDD" transform="translate(260,44)"/>
<path d="M0 0 C3.3 0 6.6 0 10 0 C10 0.99 10 1.98 10 3 C6.7 2.34 3.4 1.68 0 1 C0 0.67 0 0.34 0 0 Z " fill="#FCF7F6" transform="translate(161,42)"/>
<path d="M0 0 C3 1 3 1 5 4 C5 4.99 5 5.98 5 7 C4.01 6.67 3.02 6.34 2 6 C0.8125 2.9375 0.8125 2.9375 0 0 Z " fill="#FEFAF9" transform="translate(272,85)"/>
<path d="M0 0 C0.66 0 1.32 0 2 0 C2 1.65 2 3.3 2 5 C0.02 5.99 0.02 5.99 -2 7 C-1.34 4.69 -0.68 2.38 0 0 Z " fill="#F3C4C0" transform="translate(207,62)"/>
<path d="M0 0 C0.66 1.32 1.32 2.64 2 4 C1.01 4.66 0.02 5.32 -1 6 C-1.99 5.67 -2.98 5.34 -4 5 C-2.68 3.35 -1.36 1.7 0 0 Z " fill="#D82B24" transform="translate(46,35)"/>
</svg>
